# xmcd CD database file
#
# Track frame offsets:
#	187
#	21537
#	46634
#	65519
#	85357
#	114739
#	136197
#	162707
#	182299
#	201652
#
# Disc length: 3056 seconds
#
# Revision: 1
# Processed by: cddbd v1.5.2PL0 Copyright (c) Steve Scherf et al.
# Submitted via: CDex 1.70beta2
#
DISCID=8e0bee0a
DTITLE=おおたか静流 - REPEAT PERFORMANCE III
DYEAR=1995
DGENRE=New Age
TTITLE0=鎮魂詠歌
TTITLE1=上を向いて歩こう
TTITLE2=真赤な太陽
TTITLE3=野ばら
TTITLE4=花・太陽・雨
TTITLE5=星屑の町
TTITLE6=天国と地獄
TTITLE7=ちいさい秋みつけた
TTITLE8=いとしのエリー
TTITLE9=愛は降る
EXTD=YEAR: 1995
EXTT0=
EXTT1=
EXTT2=
EXTT3=
EXTT4=
EXTT5=
EXTT6=
EXTT7=
EXTT8=
EXTT9=
PLAYORDER=
